<svg id="Layer_1" data-name="Layer 1" xmlns="http://www.w3.org/2000/svg" viewBox="0 0 400 600"><defs><style>.cls-1{fill:#fff8d2;}.cls-2{fill:#e1e1df;}.cls-3{fill:#805026;}.cls-4{fill:#47301f;}.cls-5{fill:#95623b;}</style></defs><title>Artboard 23</title><rect class="cls-1" x="6.11" y="20.49" width="393.78" height="573.81" rx="18.93" ry="18.93"/><path class="cls-2" d="M26.58,237.15v85.63a84.56,84.56,0,0,0,19.14,53.58l42.93,52.41a84.56,84.56,0,0,0,65.41,31h40.16a84.56,84.56,0,0,0,66.71-32.6l40.8-52.38a84.56,84.56,0,0,0,17.85-52V237.15Z"/><rect class="cls-2" x="107.22" y="450.65" width="132.87" height="19.31" rx="2.12" ry="2.12"/><circle class="cls-2" cx="352.05" cy="279.34" r="42.19"/><path class="cls-2" d="M309.87,248.51h73.31l6.72,51.71S335,345,309.38,362.07Z"/><circle class="cls-1" cx="353.78" cy="281.06" r="24.98"/><path class="cls-3" d="M55.69,277v57.32c0,13.08,5.35,25.75,15.14,35.87l34,35.08c12.7,13.13,31.69,20.74,51.73,20.74h31.76c20.62,0,40.09-8.05,52.76-21.82l32.27-35.07c9.15-9.94,14.12-22.18,14.12-34.79V277Z"/><path class="cls-4" d="M55.69,331.51v2.81c0,13.08,5.35,25.75,15.14,35.87l34,35.08c12.7,13.13,31.69,20.74,51.73,20.74h31.76c20.62,0,40.09-8.05,52.76-21.82l32.27-35.07c9.15-9.94,14.12-22.18,14.12-34.79v-2.83Z"/><ellipse class="cls-5" cx="141.55" cy="355.93" rx="6.41" ry="5.27"/><path class="cls-5" d="M171.8,365.83c-3.52-.29-6.09-2.87-5.74-5.77s3.49-5,7-4.72,6.09,2.87,5.74,5.77S175.32,366.12,171.8,365.83Z"/><ellipse class="cls-5" cx="206.47" cy="350.66" rx="6.41" ry="5.27"/><ellipse class="cls-5" cx="187.64" cy="383.38" rx="6.41" ry="5.27"/><ellipse class="cls-5" cx="154.36" cy="393.93" rx="6.41" ry="5.27"/></svg>