<svg id="Layer_1" data-name="Layer 1" xmlns="http://www.w3.org/2000/svg" viewBox="0 0 400 600"><defs><style>.cls-1{fill:#e1e1df;}.cls-2{fill:#fff;}.cls-3{fill:#f5e4b4;}.cls-4{fill:#cdebf7;}.cls-5{fill:#865328;}.cls-6{fill:#95623b;}</style></defs><title>Artboard 1</title><circle class="cls-1" cx="330.44" cy="292.49" r="53.11"/><path class="cls-1" d="M277.33,253.11H366l8.13,69.59S307.69,383,276.74,406Z"/><path class="cls-1" d="M33.13,216.48V380a86.7,86.7,0,0,0,39.45,72.69l12.26,8a86.7,86.7,0,0,0,47.25,14h49.53A86.7,86.7,0,0,0,231.33,459L244,450.16A86.7,86.7,0,0,0,281,376.84l-4.26-160.35Z"/><circle class="cls-2" cx="330.44" cy="292.49" r="30.22"/><path class="cls-3" d="M51.44,275.09h203v63.63c0,55.84-31.18,101.11-69.64,101.11H121.08c-38.46,0-69.64-45.27-69.64-101.11Z"/><path class="cls-4" d="M51.44,329.65h203v42.71c0,37.48-31.18,67.86-69.64,67.86H121.08c-38.46,0-69.64-30.38-69.64-67.86Z"/><path class="cls-5" d="M51.44,357.46h203v32c0,28.05-31.18,50.79-69.64,50.79H121.08c-38.46,0-69.64-22.74-69.64-50.79Z"/><circle class="cls-6" cx="126.31" cy="380.19" r="6.38"/><circle class="cls-6" cx="157.06" cy="385.82" r="6.38" transform="translate(-242.43 503.85) rotate(-84.31)"/><circle class="cls-6" cx="190.94" cy="373.81" r="6.38"/><circle class="cls-6" cx="172.2" cy="413.39" r="6.38"/><circle class="cls-6" cx="139.06" cy="426.15" r="6.38"/></svg>