<svg id="Layer_1" data-name="Layer 1" xmlns="http://www.w3.org/2000/svg" viewBox="0 0 400 600"><defs><style>.cls-1{fill:#86726a;}.cls-2{fill:#e1e1df;}.cls-3{fill:#f5e4b4;}.cls-4{fill:#cdebf7;}.cls-5{fill:#865328;}.cls-6{fill:#95623b;}</style></defs><title>Artboard 19</title><rect class="cls-1" x="3.45" y="6.68" width="393.78" height="573.81" rx="18.93" ry="18.93"/><circle class="cls-2" cx="329.77" cy="266.92" r="54.7"/><path class="cls-2" d="M275.07,226.37h91.32L374.75,298s-68.42,62.07-100.29,85.74Z"/><path class="cls-2" d="M23.55,188.64V357.1A89.29,89.29,0,0,0,64.18,432l12.63,8.21a89.29,89.29,0,0,0,48.66,14.43h51a89.29,89.29,0,0,0,51.21-16.14l13.06-9.14a89.29,89.29,0,0,0,38.06-75.52l-4.38-165.15Z"/><circle class="cls-1" cx="329.77" cy="266.92" r="31.12"/><path class="cls-3" d="M42.42,249H251.49v65.54c0,57.51-32.11,104.14-71.72,104.14H114.14c-39.61,0-71.72-46.62-71.72-104.14Z"/><path class="cls-4" d="M42.42,305.19H251.49v44c0,38.6-32.11,69.89-71.72,69.89H114.14c-39.61,0-71.72-31.29-71.72-69.89Z"/><path class="cls-5" d="M42.42,333.84H251.49v32.92c0,28.89-32.11,52.31-71.72,52.31H114.14c-39.61,0-71.72-23.42-71.72-52.31Z"/><circle class="cls-6" cx="119.52" cy="357.25" r="6.57"/><circle class="cls-6" cx="151.2" cy="363.04" r="6.57" transform="translate(-225.05 477.49) rotate(-84.31)"/><circle class="cls-6" cx="186.09" cy="350.68" r="6.57"/><circle class="cls-6" cx="166.79" cy="391.44" r="6.57"/><circle class="cls-6" cx="132.66" cy="404.58" r="6.57"/></svg>