<svg id="Layer_1" data-name="Layer 1" xmlns="http://www.w3.org/2000/svg" viewBox="0 0 400 600"><defs><style>.cls-1{fill:#e1e1df;}.cls-2{fill:#fff;}.cls-3{fill:#f5e4b4;}.cls-4{fill:#47301f;}.cls-5{fill:#95623b;}</style></defs><title>Artboard 10</title><path class="cls-1" d="M33.29,259.8v81.26A80.24,80.24,0,0,0,51.46,391.9l40.74,49.73A80.24,80.24,0,0,0,154.27,471h38.11a80.24,80.24,0,0,0,63.3-30.93l38.72-49.7a80.24,80.24,0,0,0,16.94-49.31V259.8Z"/><rect class="cls-1" x="109.81" y="462.41" width="126.09" height="18.32" rx="2.12" ry="2.12"/><circle class="cls-1" cx="342.15" cy="299.83" r="40.03"/><path class="cls-1" d="M302.12,270.58h69.57l6.38,49.07s-52.12,42.5-76.4,58.7Z"/><circle class="cls-2" cx="343.79" cy="301.47" r="23.71"/><path class="cls-3" d="M60.91,297.61V352c0,12.41,5.08,24.44,14.37,34l32.22,33.29C119.55,431.8,137.56,439,156.59,439h30.14c19.57,0,38-7.64,50.07-20.71L267.41,385c8.68-9.44,13.4-21.05,13.4-33V297.61Z"/><path class="cls-4" d="M60.91,349.34V352c0,12.41,5.08,24.44,14.37,34l32.22,33.29C119.55,431.8,137.56,439,156.59,439h30.14c19.57,0,38-7.64,50.07-20.71L267.41,385c8.68-9.44,13.4-21.05,13.4-33v-2.69Z"/><ellipse class="cls-5" cx="142.39" cy="372.52" rx="6.08" ry="5"/><path class="cls-5" d="M171.1,381.91c-3.34-.27-5.78-2.73-5.45-5.48s3.31-4.76,6.65-4.48,5.78,2.73,5.45,5.48S174.44,382.18,171.1,381.91Z"/><ellipse class="cls-5" cx="203.99" cy="367.51" rx="6.08" ry="5"/><ellipse class="cls-5" cx="186.13" cy="398.56" rx="6.08" ry="5"/><ellipse class="cls-5" cx="154.54" cy="408.57" rx="6.08" ry="5"/></svg>