<svg id="Layer_1" data-name="Layer 1" xmlns="http://www.w3.org/2000/svg" viewBox="0 0 400 600"><defs><style>.cls-1{fill:#fff1b6;}.cls-2{fill:#e1e1df;}.cls-3{fill:#f5e4b4;}.cls-4{fill:#cdebf7;}.cls-5{fill:#865328;}.cls-6{fill:#95623b;}</style></defs><title>Artboard 16</title><rect class="cls-1" x="4.16" y="13.09" width="393.78" height="573.81" rx="18.93" ry="18.93"/><circle class="cls-2" cx="349.71" cy="299.12" r="54.7"/><path class="cls-2" d="M295,258.57h91.32l8.37,71.68S326.27,392.32,294.4,416Z"/><path class="cls-2" d="M43.49,220.84V389.3a89.29,89.29,0,0,0,40.63,74.87l12.63,8.21a89.29,89.29,0,0,0,48.66,14.43h51a89.29,89.29,0,0,0,51.21-16.14l13.06-9.14A89.29,89.29,0,0,0,298.75,386l-4.38-165.15Z"/><circle class="cls-1" cx="349.71" cy="299.12" r="31.12"/><path class="cls-3" d="M62.36,281.2H271.43v65.54c0,57.51-32.11,104.14-71.72,104.14H134.08c-39.61,0-71.72-46.62-71.72-104.14Z"/><path class="cls-4" d="M62.36,337.39H271.43v44c0,38.6-32.11,69.89-71.72,69.89H134.08c-39.61,0-71.72-31.29-71.72-69.89Z"/><path class="cls-5" d="M62.36,366H271.43V399c0,28.89-32.11,52.31-71.72,52.31H134.08c-39.61,0-71.72-23.42-71.72-52.31Z"/><circle class="cls-6" cx="139.46" cy="389.45" r="6.57"/><circle class="cls-6" cx="171.14" cy="395.24" r="6.57" transform="translate(-239.13 526.34) rotate(-84.31)"/><circle class="cls-6" cx="206.03" cy="382.88" r="6.57"/><circle class="cls-6" cx="186.73" cy="423.64" r="6.57"/><circle class="cls-6" cx="152.6" cy="436.78" r="6.57"/></svg>