<svg id="Layer_1" data-name="Layer 1" xmlns="http://www.w3.org/2000/svg" viewBox="0 0 400 600"><defs><style>.cls-1{fill:#e1e1df;}.cls-2{fill:#fff;}.cls-3{fill:#865328;}.cls-4{fill:#cdebf7;}.cls-5{fill:#95623b;}</style></defs><title>Artboard 9</title><circle class="cls-1" cx="330.41" cy="324.1" r="53.68"/><path class="cls-1" d="M276.74,284.31h89.61l8.21,70.33s-67.14,60.91-98.41,84.13Z"/><path class="cls-1" d="M29.94,247.29v165.3A87.62,87.62,0,0,0,69.8,486.06l12.39,8.05a87.62,87.62,0,0,0,47.75,14.16H180a87.62,87.62,0,0,0,50.25-15.84l12.82-9a87.62,87.62,0,0,0,37.34-74.11l-4.3-162.06Z"/><circle class="cls-2" cx="330.41" cy="324.1" r="30.54"/><path class="cls-3" d="M52.61,361.54H257.76v47c0,41.24-31.51,74.66-70.38,74.66H123c-38.87,0-70.38-33.43-70.38-74.66Z"/><rect class="cls-4" x="52.61" y="293.56" width="205.15" height="60.15"/><circle class="cls-5" cx="124.06" cy="402.37" r="6.45"/><circle class="cls-5" cx="155.14" cy="408.05" r="6.45" transform="translate(-266.29 521.97) rotate(-84.31)"/><circle class="cls-5" cx="189.38" cy="395.92" r="6.45"/><circle class="cls-5" cx="170.44" cy="435.92" r="6.45"/><circle class="cls-5" cx="136.95" cy="448.81" r="6.45"/></svg>