<svg id="Layer_1" data-name="Layer 1" xmlns="http://www.w3.org/2000/svg" viewBox="0 0 400 600"><defs><style>.cls-1{fill:#929395;}.cls-2{fill:#aeada9;}.cls-3{fill:#d7d7d7;}.cls-4{fill:#442a1b;}.cls-5{fill:#ecf3d7;}.cls-6{fill:#95623b;}</style></defs><title>Artboard 6</title><polygon class="cls-1" points="132.77 121.62 96.52 147.34 299.95 147.34 264.88 121.62 132.77 121.62"/><rect class="cls-2" x="73.14" y="147.34" width="246.68" height="28.06"/><rect class="cls-1" x="96.52" y="175.4" width="203.43" height="149.65"/><rect class="cls-2" x="42.74" y="325.04" width="307.48" height="21.04"/><polygon class="cls-3" points="291.76 567.05 105.88 567.05 68.47 376.48 329.18 376.48 291.76 567.05"/><polygon class="cls-4" points="259.64 505.89 139.61 505.89 111.55 464.78 283.02 464.78 259.64 505.89"/><polygon class="cls-5" points="220.45 547.01 170.57 547.01 137.83 505.89 257.86 505.89 220.45 547.01"/><circle class="cls-6" cx="184.76" cy="477.08" r="2.66"/><circle class="cls-6" cx="197.58" cy="479.43" r="2.66" transform="translate(-299.07 628.5) rotate(-84.31)"/><circle class="cls-6" cx="211.71" cy="474.42" r="2.66"/><circle class="cls-6" cx="203.9" cy="490.93" r="2.66"/><circle class="cls-6" cx="190.08" cy="496.25" r="2.66"/></svg>