<svg id="Layer_1" data-name="Layer 1" xmlns="http://www.w3.org/2000/svg" viewBox="0 0 400 600"><defs><style>.cls-1{fill:#fff;}.cls-2{fill:#805026;}.cls-3{fill:#e1b973;}.cls-4{fill:#fffaf1;}.cls-5{fill:#95623b;}.cls-6{fill:#f5e4b4;}</style></defs><title>Artboard 13</title><path class="cls-1" d="M87.46,168.86V474.42s99.43,86.09,225.53,0V168.86Z"/><polygon class="cls-1" points="175.98 507.83 87.47 559.29 306.93 559.29 220.03 511.35 175.98 507.83"/><path class="cls-2" d="M121.72,386.67h157v70.81s-80.63,62.83-157,0Z"/><rect class="cls-3" x="121.72" y="298.56" width="157.02" height="88.11"/><path class="cls-4" d="M135.54,242H197S239,221.81,281,225V126.42s4.85-36.38-55-29.5-34.76-44.86-34.76-44.86-55,37.18-25.06,68.71c0,0-25.87,5.66-22.63,19.4,0,0-11.32-2.43-17.78-2.43s0,104.23,0,104.23Z"/><circle class="cls-5" cx="176.86" cy="419.24" r="5.63"/><circle class="cls-5" cx="204.01" cy="424.21" r="5.63" transform="translate(-238.33 585.15) rotate(-84.31)"/><circle class="cls-5" cx="233.92" cy="413.61" r="5.63"/><circle class="cls-5" cx="217.38" cy="448.55" r="5.63"/><circle class="cls-5" cx="188.12" cy="459.81" r="5.63"/><rect class="cls-6" x="121.72" y="210.45" width="157.02" height="88.11"/></svg>