<svg id="Layer_1" data-name="Layer 1" xmlns="http://www.w3.org/2000/svg" viewBox="0 0 400 600"><defs><style>.cls-1{fill:#f59c9d;}.cls-2{fill:#e1e1df;}.cls-3{fill:#f5e4b4;}.cls-4{fill:#cdebf7;}.cls-5{fill:#865328;}.cls-6{fill:#95623b;}</style></defs><title>Artboard 20</title><rect class="cls-1" x="3.61" y="12.52" width="393.78" height="573.81" rx="18.93" ry="18.93"/><circle class="cls-2" cx="326.26" cy="279.14" r="54.7"/><path class="cls-2" d="M271.56,238.58h91.32l8.37,71.68S302.82,372.33,271,396Z"/><path class="cls-2" d="M20,200.86V369.32a89.29,89.29,0,0,0,40.63,74.87l12.63,8.21A89.29,89.29,0,0,0,122,466.82h51a89.29,89.29,0,0,0,51.21-16.14l13.06-9.14A89.29,89.29,0,0,0,275.3,366l-4.38-165.15Z"/><circle class="cls-1" cx="326.26" cy="279.14" r="31.12"/><path class="cls-3" d="M38.91,261.22H248v65.54c0,57.51-32.11,104.14-71.72,104.14H110.63c-39.61,0-71.72-46.62-71.72-104.14Z"/><path class="cls-4" d="M38.91,317.41H248v44c0,38.6-32.11,69.89-71.72,69.89H110.63C71,431.29,38.91,400,38.91,361.4Z"/><path class="cls-5" d="M38.91,346.05H248V379c0,28.89-32.11,52.31-71.72,52.31H110.63C71,431.29,38.91,407.87,38.91,379Z"/><circle class="cls-6" cx="116.01" cy="369.47" r="6.57"/><circle class="cls-6" cx="147.69" cy="375.26" r="6.57" transform="translate(-240.36 485.01) rotate(-84.31)"/><circle class="cls-6" cx="182.59" cy="362.9" r="6.57"/><circle class="cls-6" cx="163.28" cy="403.66" r="6.57"/><circle class="cls-6" cx="117.83" cy="416.8" r="6.57"/></svg>