<svg id="Layer_1" data-name="Layer 1" xmlns="http://www.w3.org/2000/svg" viewBox="0 0 400 600"><defs><style>.cls-1{fill:#fff;}.cls-2{fill:#805026;}.cls-3{fill:#f5ebd6;}.cls-4{fill:#95623b;}.cls-5{fill:#f5e4b4;}</style></defs><title>Artboard 4</title><path class="cls-1" d="M75.8,120.86v334s108.67,94.1,246.5,0v-334Z"/><path class="cls-1" d="M172.55,491.36,97.47,535a6.76,6.76,0,0,0,3.4,12.6H289.45a6.76,6.76,0,0,0,3.26-12.67l-72-39.73Z"/><path class="cls-2" d="M113.24,358.93H284.87v77.39s-88.13,68.68-171.63,0Z"/><path class="cls-3" d="M126,260h67.15s45.94-22,91.89-18.5V133.68s5.3-39.76-60.08-32.25-38-49-38-49S126.93,93,159.62,127.49c0,0-28.27,6.18-24.74,21.2,0,0-12.37-2.65-19.44-2.65s0,113.93,0,113.93Z"/><circle class="cls-4" cx="173.51" cy="394.53" r="6.15"/><circle class="cls-4" cx="203.19" cy="399.96" r="6.15" transform="translate(-214.94 562.48) rotate(-84.31)"/><circle class="cls-4" cx="235.88" cy="388.38" r="6.15"/><circle class="cls-4" cx="217.8" cy="426.56" r="6.15"/><circle class="cls-4" cx="185.82" cy="438.87" r="6.15"/><rect class="cls-5" x="113.24" y="215.57" width="171.63" height="143.35"/></svg>